<mxfile host="65bd71144e">
    <diagram id="C5RBs43oDa-KdzZeNtuy" name="Page-1">
        <mxGraphModel dx="1088" dy="777" grid="1" gridSize="10" guides="1" tooltips="1" connect="1" arrows="1" fold="1" page="1" pageScale="1" pageWidth="1169" pageHeight="1654" background="#ffffff" math="0" shadow="1">
            <root>
                <mxCell id="WIyWlLk6GJQsqaUBKTNV-0"/>
                <mxCell id="WIyWlLk6GJQsqaUBKTNV-1" parent="WIyWlLk6GJQsqaUBKTNV-0"/>
                <mxCell id="g3-n2oAxiO13UJBlfTeH-4" value="outlier filter" style="rounded=1;strokeWidth=1;fontFamily=Helvetica;spacing=8;spacingTop=2;snapToPoint=1;fixDash=0;editable=1;movable=1;resizable=1;rotatable=1;deletable=1;locked=0;connectable=1;backgroundOutline=0;comic=0;shadow=1;fontSize=19;fontColor=#1D3557;labelBackgroundColor=none;labelBorderColor=none;fillColor=#A8DADC;strokeColor=#457B9D;metaEdit=0;align=center;sketch=1;curveFitting=1;jiggle=2;disableMultiStroke=1;disableMultiStrokeFill=1;whiteSpace=wrap;html=1;sketchStyle=rough;enumerate=0;" parent="WIyWlLk6GJQsqaUBKTNV-1" vertex="1">
                    <mxGeometry x="551" y="499" width="120" height="60" as="geometry"/>
                </mxCell>
                <mxCell id="g3-n2oAxiO13UJBlfTeH-14" value="" style="edgeStyle=orthogonalEdgeStyle;rounded=1;orthogonalLoop=1;jettySize=auto;strokeWidth=1;fontFamily=Helvetica;spacing=8;spacingTop=2;snapToPoint=1;fixDash=0;editable=1;movable=1;resizable=1;rotatable=1;deletable=1;locked=0;connectable=1;backgroundOutline=0;comic=0;shadow=1;fontSize=19;fontColor=#1D3557;labelBackgroundColor=none;labelBorderColor=none;strokeColor=#457B9D;curved=1;metaEdit=0;align=center;sketch=1;curveFitting=1;jiggle=2;disableMultiStroke=1;disableMultiStrokeFill=1;html=1;sketchStyle=rough;enumerate=0;" parent="WIyWlLk6GJQsqaUBKTNV-1" source="g3-n2oAxiO13UJBlfTeH-5" target="g3-n2oAxiO13UJBlfTeH-10" edge="1">
                    <mxGeometry relative="1" as="geometry"/>
                </mxCell>
                <mxCell id="g3-n2oAxiO13UJBlfTeH-5" value="shuffling" style="rounded=1;strokeWidth=1;fontFamily=Helvetica;spacing=8;spacingTop=2;snapToPoint=1;fixDash=0;editable=1;movable=1;resizable=1;rotatable=1;deletable=1;locked=0;connectable=1;backgroundOutline=0;comic=0;shadow=1;fontSize=19;fontColor=#1D3557;labelBackgroundColor=none;labelBorderColor=none;fillColor=#A8DADC;strokeColor=#457B9D;metaEdit=0;align=center;sketch=1;curveFitting=1;jiggle=2;disableMultiStroke=1;disableMultiStrokeFill=1;whiteSpace=wrap;html=1;sketchStyle=rough;enumerate=0;" parent="WIyWlLk6GJQsqaUBKTNV-1" vertex="1">
                    <mxGeometry x="551" y="599" width="120" height="60" as="geometry"/>
                </mxCell>
                <mxCell id="g3-n2oAxiO13UJBlfTeH-8" value="" style="endArrow=classic;rounded=1;entryX=0.5;entryY=0;entryDx=0;entryDy=0;exitX=0.5;exitY=1;exitDx=0;exitDy=0;strokeWidth=1;fontFamily=Helvetica;spacing=8;spacingTop=2;snapToPoint=1;fixDash=0;editable=1;movable=1;resizable=1;rotatable=1;deletable=1;locked=0;connectable=1;backgroundOutline=0;comic=0;shadow=1;fontSize=19;fontColor=#1D3557;labelBackgroundColor=none;labelBorderColor=none;strokeColor=#457B9D;curved=1;metaEdit=0;align=center;sketch=1;curveFitting=1;jiggle=2;disableMultiStroke=1;disableMultiStrokeFill=1;html=1;sketchStyle=rough;enumerate=0;" parent="WIyWlLk6GJQsqaUBKTNV-1" source="g3-n2oAxiO13UJBlfTeH-4" target="g3-n2oAxiO13UJBlfTeH-5" edge="1">
                    <mxGeometry width="50" height="50" relative="1" as="geometry">
                        <mxPoint x="620" y="531" as="sourcePoint"/>
                        <mxPoint x="620" y="571" as="targetPoint"/>
                    </mxGeometry>
                </mxCell>
                <mxCell id="g3-n2oAxiO13UJBlfTeH-21" value="" style="edgeStyle=orthogonalEdgeStyle;rounded=1;orthogonalLoop=1;jettySize=auto;entryX=0.5;entryY=0;entryDx=0;entryDy=0;strokeWidth=1;fontFamily=Helvetica;spacing=8;spacingTop=2;snapToPoint=1;fixDash=0;editable=1;movable=1;resizable=1;rotatable=1;deletable=1;locked=0;connectable=1;backgroundOutline=0;comic=0;shadow=1;fontSize=19;fontColor=#1D3557;labelBackgroundColor=none;labelBorderColor=none;strokeColor=#457B9D;curved=1;metaEdit=0;align=center;sketch=1;curveFitting=1;jiggle=2;disableMultiStroke=1;disableMultiStrokeFill=1;html=1;sketchStyle=rough;enumerate=0;" parent="WIyWlLk6GJQsqaUBKTNV-1" source="g3-n2oAxiO13UJBlfTeH-10" target="g3-n2oAxiO13UJBlfTeH-15" edge="1">
                    <mxGeometry relative="1" as="geometry"/>
                </mxCell>
                <mxCell id="g3-n2oAxiO13UJBlfTeH-30" value="" style="edgeStyle=orthogonalEdgeStyle;rounded=1;orthogonalLoop=1;jettySize=auto;entryX=0.5;entryY=0;entryDx=0;entryDy=0;strokeWidth=1;fontFamily=Helvetica;spacing=8;spacingTop=2;snapToPoint=1;fixDash=0;editable=1;movable=1;resizable=1;rotatable=1;deletable=1;locked=0;connectable=1;backgroundOutline=0;comic=0;shadow=1;fontSize=19;fontColor=#1D3557;labelBackgroundColor=none;labelBorderColor=none;strokeColor=#457B9D;curved=1;metaEdit=0;align=center;sketch=1;curveFitting=1;jiggle=2;disableMultiStroke=1;disableMultiStrokeFill=1;html=1;sketchStyle=rough;enumerate=0;" parent="WIyWlLk6GJQsqaUBKTNV-1" source="g3-n2oAxiO13UJBlfTeH-10" target="g3-n2oAxiO13UJBlfTeH-17" edge="1">
                    <mxGeometry relative="1" as="geometry"/>
                </mxCell>
                <mxCell id="g3-n2oAxiO13UJBlfTeH-10" value="dividing to &lt;br&gt;training and testing sets" style="rhombus;strokeWidth=1;fontFamily=Helvetica;spacing=8;spacingTop=2;snapToPoint=1;fixDash=0;editable=1;movable=1;resizable=1;rotatable=1;deletable=1;locked=0;connectable=1;backgroundOutline=0;comic=0;shadow=1;fontSize=19;fontColor=#1D3557;labelBackgroundColor=none;labelBorderColor=none;fillColor=#A8DADC;strokeColor=#457B9D;rounded=1;metaEdit=0;align=center;sketch=1;curveFitting=1;jiggle=2;disableMultiStroke=1;disableMultiStrokeFill=1;whiteSpace=wrap;html=1;sketchStyle=rough;enumerate=0;" parent="WIyWlLk6GJQsqaUBKTNV-1" vertex="1">
                    <mxGeometry x="531" y="690" width="160" height="160" as="geometry"/>
                </mxCell>
                <mxCell id="g3-n2oAxiO13UJBlfTeH-11" value="20% to testing" style="text;align=center;verticalAlign=middle;rounded=1;strokeWidth=1;fontFamily=Helvetica;spacing=8;spacingTop=2;snapToPoint=1;fixDash=0;editable=1;movable=1;resizable=1;rotatable=1;deletable=1;locked=0;connectable=1;backgroundOutline=0;comic=0;shadow=1;fontSize=22;fontColor=#1D3557;labelBackgroundColor=none;labelBorderColor=none;metaEdit=0;sketch=1;curveFitting=1;jiggle=2;disableMultiStroke=1;disableMultiStrokeFill=1;whiteSpace=wrap;html=1;sketchStyle=rough;enumerate=0;" parent="WIyWlLk6GJQsqaUBKTNV-1" vertex="1">
                    <mxGeometry x="690" y="768" width="60" height="30" as="geometry"/>
                </mxCell>
                <mxCell id="g3-n2oAxiO13UJBlfTeH-22" value="" style="edgeStyle=orthogonalEdgeStyle;rounded=1;orthogonalLoop=1;jettySize=auto;entryX=0.5;entryY=0;entryDx=0;entryDy=0;strokeWidth=1;fontFamily=Helvetica;spacing=8;spacingTop=2;snapToPoint=1;fixDash=0;editable=1;movable=1;resizable=1;rotatable=1;deletable=1;locked=0;connectable=1;backgroundOutline=0;comic=0;shadow=1;fontSize=19;fontColor=#1D3557;labelBackgroundColor=none;labelBorderColor=none;strokeColor=#457B9D;curved=1;metaEdit=0;align=center;sketch=1;curveFitting=1;jiggle=2;disableMultiStroke=1;disableMultiStrokeFill=1;html=1;sketchStyle=rough;enumerate=0;" parent="WIyWlLk6GJQsqaUBKTNV-1" source="g3-n2oAxiO13UJBlfTeH-15" target="g3-n2oAxiO13UJBlfTeH-16" edge="1">
                    <mxGeometry relative="1" as="geometry"/>
                </mxCell>
                <mxCell id="g3-n2oAxiO13UJBlfTeH-15" value="setting ANN structureÂ " style="rounded=1;strokeWidth=1;fontFamily=Helvetica;spacing=8;spacingTop=2;snapToPoint=1;fixDash=0;editable=1;movable=1;resizable=1;rotatable=1;deletable=1;locked=0;connectable=1;backgroundOutline=0;comic=0;shadow=1;fontSize=19;fontColor=#1D3557;labelBackgroundColor=none;labelBorderColor=none;fillColor=#A8DADC;strokeColor=#457B9D;metaEdit=0;align=center;sketch=1;curveFitting=1;jiggle=2;disableMultiStroke=1;disableMultiStrokeFill=1;whiteSpace=wrap;html=1;sketchStyle=rough;enumerate=0;" parent="WIyWlLk6GJQsqaUBKTNV-1" vertex="1">
                    <mxGeometry x="371" y="860" width="120" height="60" as="geometry"/>
                </mxCell>
                <mxCell id="K5SKpRPEYrI_HWHOqMPw-5" value="" style="edgeStyle=orthogonalEdgeStyle;rounded=1;orthogonalLoop=1;jettySize=auto;strokeWidth=1;fontSize=19;fontColor=#1D3557;labelBackgroundColor=none;labelBorderColor=none;strokeColor=#457B9D;curved=1;snapToPoint=1;metaEdit=0;align=center;fontFamily=Helvetica;fixDash=0;sketch=1;curveFitting=1;jiggle=2;shadow=1;disableMultiStroke=1;disableMultiStrokeFill=1;html=1;sketchStyle=rough;enumerate=0;" parent="WIyWlLk6GJQsqaUBKTNV-1" source="g3-n2oAxiO13UJBlfTeH-16" target="g3-n2oAxiO13UJBlfTeH-20" edge="1">
                    <mxGeometry relative="1" as="geometry">
                        <Array as="points">
                            <mxPoint x="431" y="1160"/>
                            <mxPoint x="630" y="1160"/>
                            <mxPoint x="630" y="1045"/>
                        </Array>
                    </mxGeometry>
                </mxCell>
                <mxCell id="g3-n2oAxiO13UJBlfTeH-16" value="fitting the data" style="rounded=1;strokeWidth=1;fontFamily=Helvetica;spacing=8;spacingTop=2;snapToPoint=1;fixDash=0;editable=1;movable=1;resizable=1;rotatable=1;deletable=1;locked=0;connectable=1;backgroundOutline=0;comic=0;shadow=1;fontSize=19;fontColor=#1D3557;labelBackgroundColor=none;labelBorderColor=none;fillColor=#A8DADC;strokeColor=#457B9D;metaEdit=0;align=center;sketch=1;curveFitting=1;jiggle=2;disableMultiStroke=1;disableMultiStrokeFill=1;whiteSpace=wrap;html=1;sketchStyle=rough;enumerate=0;" parent="WIyWlLk6GJQsqaUBKTNV-1" vertex="1">
                    <mxGeometry x="371" y="1015" width="120" height="60" as="geometry"/>
                </mxCell>
                <mxCell id="g3-n2oAxiO13UJBlfTeH-31" value="" style="edgeStyle=orthogonalEdgeStyle;rounded=1;orthogonalLoop=1;jettySize=auto;strokeWidth=1;fontFamily=Helvetica;spacing=8;spacingTop=2;snapToPoint=1;fixDash=0;editable=1;movable=1;resizable=1;rotatable=1;deletable=1;locked=0;connectable=1;backgroundOutline=0;comic=0;shadow=1;fontSize=19;fontColor=#1D3557;labelBackgroundColor=none;labelBorderColor=none;strokeColor=#457B9D;curved=1;metaEdit=0;align=center;sketch=1;curveFitting=1;jiggle=2;disableMultiStroke=1;disableMultiStrokeFill=1;html=1;sketchStyle=rough;enumerate=0;" parent="WIyWlLk6GJQsqaUBKTNV-1" source="g3-n2oAxiO13UJBlfTeH-17" target="g3-n2oAxiO13UJBlfTeH-20" edge="1">
                    <mxGeometry relative="1" as="geometry"/>
                </mxCell>
                <mxCell id="g3-n2oAxiO13UJBlfTeH-17" value="testing the mode" style="rounded=1;strokeWidth=1;fontFamily=Helvetica;spacing=8;spacingTop=2;snapToPoint=1;fixDash=0;editable=1;movable=1;resizable=1;rotatable=1;deletable=1;locked=0;connectable=1;backgroundOutline=0;comic=0;shadow=1;fontSize=19;fontColor=#1D3557;labelBackgroundColor=none;labelBorderColor=none;fillColor=#A8DADC;strokeColor=#457B9D;metaEdit=0;align=center;sketch=1;curveFitting=1;jiggle=2;disableMultiStroke=1;disableMultiStrokeFill=1;whiteSpace=wrap;html=1;sketchStyle=rough;enumerate=0;" parent="WIyWlLk6GJQsqaUBKTNV-1" vertex="1">
                    <mxGeometry x="731" y="860" width="120" height="60" as="geometry"/>
                </mxCell>
                <mxCell id="K5SKpRPEYrI_HWHOqMPw-0" value="" style="edgeStyle=orthogonalEdgeStyle;rounded=1;orthogonalLoop=1;jettySize=auto;strokeWidth=1;fontSize=19;fontColor=#1D3557;labelBackgroundColor=none;labelBorderColor=none;strokeColor=#457B9D;curved=1;snapToPoint=1;metaEdit=0;align=center;fontFamily=Helvetica;fixDash=0;sketch=1;curveFitting=1;jiggle=2;shadow=1;disableMultiStroke=1;disableMultiStrokeFill=1;html=1;sketchStyle=rough;enumerate=0;" parent="WIyWlLk6GJQsqaUBKTNV-1" source="g3-n2oAxiO13UJBlfTeH-20" target="g3-n2oAxiO13UJBlfTeH-48" edge="1">
                    <mxGeometry relative="1" as="geometry">
                        <Array as="points">
                            <mxPoint x="791" y="1180"/>
                            <mxPoint x="611" y="1180"/>
                        </Array>
                    </mxGeometry>
                </mxCell>
                <mxCell id="g3-n2oAxiO13UJBlfTeH-20" value="decision makingÂ " style="rhombus;strokeWidth=1;fontFamily=Helvetica;spacing=8;spacingTop=2;snapToPoint=1;fixDash=0;editable=1;movable=1;resizable=1;rotatable=1;deletable=1;locked=0;connectable=1;backgroundOutline=0;comic=0;shadow=1;fontSize=19;fontColor=#1D3557;labelBackgroundColor=none;labelBorderColor=none;fillColor=#A8DADC;strokeColor=#457B9D;rounded=1;metaEdit=0;align=center;sketch=1;curveFitting=1;jiggle=2;disableMultiStroke=1;disableMultiStrokeFill=1;whiteSpace=wrap;html=1;sketchStyle=rough;enumerate=0;" parent="WIyWlLk6GJQsqaUBKTNV-1" vertex="1">
                    <mxGeometry x="731" y="985" width="120" height="120" as="geometry"/>
                </mxCell>
                <mxCell id="g3-n2oAxiO13UJBlfTeH-25" value="trained&lt;br&gt;model" style="text;align=center;verticalAlign=middle;rounded=1;strokeWidth=1;fontFamily=Helvetica;spacing=8;spacingTop=2;snapToPoint=1;fixDash=0;editable=1;movable=1;resizable=1;rotatable=1;deletable=1;locked=0;connectable=1;backgroundOutline=0;comic=0;shadow=1;fontSize=22;fontColor=#1D3557;labelBackgroundColor=none;labelBorderColor=none;metaEdit=0;sketch=1;curveFitting=1;jiggle=2;disableMultiStroke=1;disableMultiStrokeFill=1;whiteSpace=wrap;html=1;sketchStyle=rough;enumerate=0;" parent="WIyWlLk6GJQsqaUBKTNV-1" vertex="1">
                    <mxGeometry x="500" y="1030" width="70" height="30" as="geometry"/>
                </mxCell>
                <mxCell id="g3-n2oAxiO13UJBlfTeH-34" value="pretrained model" style="text;align=center;verticalAlign=middle;rounded=1;strokeWidth=1;fontFamily=Helvetica;spacing=8;spacingTop=2;snapToPoint=1;fixDash=0;editable=1;movable=1;resizable=1;rotatable=1;deletable=1;locked=0;connectable=1;backgroundOutline=0;comic=0;shadow=1;fontSize=22;fontColor=#1D3557;labelBackgroundColor=none;labelBorderColor=none;metaEdit=0;sketch=1;curveFitting=1;jiggle=2;disableMultiStroke=1;disableMultiStrokeFill=1;whiteSpace=wrap;html=1;sketchStyle=rough;enumerate=0;" parent="WIyWlLk6GJQsqaUBKTNV-1" vertex="1">
                    <mxGeometry x="381" y="940" width="100" height="30" as="geometry"/>
                </mxCell>
                <mxCell id="g3-n2oAxiO13UJBlfTeH-38" value="rejected" style="text;align=center;verticalAlign=middle;rounded=1;strokeWidth=1;fontFamily=Helvetica;spacing=8;spacingTop=2;snapToPoint=1;fixDash=0;editable=1;movable=1;resizable=1;rotatable=1;deletable=1;locked=0;connectable=1;backgroundOutline=0;comic=0;shadow=1;fontSize=22;fontColor=#1D3557;labelBackgroundColor=none;labelBorderColor=none;metaEdit=0;sketch=1;curveFitting=1;jiggle=2;disableMultiStroke=1;disableMultiStrokeFill=1;whiteSpace=wrap;html=1;sketchStyle=rough;enumerate=0;" parent="WIyWlLk6GJQsqaUBKTNV-1" vertex="1">
                    <mxGeometry x="862" y="980" width="60" height="30" as="geometry"/>
                </mxCell>
                <mxCell id="g3-n2oAxiO13UJBlfTeH-43" value="retrying with some deferent initial values" style="text;align=center;verticalAlign=middle;rounded=1;strokeWidth=1;fontFamily=Helvetica;spacing=8;spacingTop=2;snapToPoint=1;fixDash=0;editable=1;movable=1;resizable=1;rotatable=1;deletable=1;locked=0;connectable=1;backgroundOutline=0;comic=0;shadow=1;fontSize=22;fontColor=#1D3557;labelBackgroundColor=none;labelBorderColor=none;metaEdit=0;sketch=1;curveFitting=1;jiggle=2;disableMultiStroke=1;disableMultiStrokeFill=1;whiteSpace=wrap;html=1;sketchStyle=rough;enumerate=0;" parent="WIyWlLk6GJQsqaUBKTNV-1" vertex="1">
                    <mxGeometry x="780" y="580" width="150" height="30" as="geometry"/>
                </mxCell>
                <mxCell id="g3-n2oAxiO13UJBlfTeH-48" value="applications" style="shape=process;backgroundOutline=0;strokeWidth=1;fontFamily=Helvetica;spacing=8;spacingTop=2;snapToPoint=1;fixDash=0;editable=1;movable=1;resizable=1;rotatable=1;deletable=1;locked=0;connectable=1;comic=0;shadow=1;fontSize=19;fontColor=#1D3557;labelBackgroundColor=none;labelBorderColor=none;fillColor=#A8DADC;strokeColor=#457B9D;rounded=1;metaEdit=0;align=center;sketch=1;curveFitting=1;jiggle=2;disableMultiStroke=1;disableMultiStrokeFill=1;whiteSpace=wrap;html=1;sketchStyle=rough;enumerate=0;" parent="WIyWlLk6GJQsqaUBKTNV-1" vertex="1">
                    <mxGeometry x="531" y="1240" width="160" height="80" as="geometry"/>
                </mxCell>
                <mxCell id="g3-n2oAxiO13UJBlfTeH-50" value="accepted" style="text;align=center;verticalAlign=middle;rounded=1;strokeWidth=1;fontFamily=Helvetica;spacing=8;spacingTop=2;snapToPoint=1;fixDash=0;editable=1;movable=1;resizable=1;rotatable=1;deletable=1;locked=0;connectable=1;backgroundOutline=0;comic=0;shadow=1;fontSize=22;fontColor=#1D3557;labelBackgroundColor=none;labelBorderColor=none;metaEdit=0;sketch=1;curveFitting=1;jiggle=2;disableMultiStroke=1;disableMultiStrokeFill=1;whiteSpace=wrap;html=1;sketchStyle=rough;enumerate=0;" parent="WIyWlLk6GJQsqaUBKTNV-1" vertex="1">
                    <mxGeometry x="761" y="1105" width="60" height="30" as="geometry"/>
                </mxCell>
                <mxCell id="39" value="" style="edgeStyle=entityRelationEdgeStyle;startArrow=none;endArrow=none;segment=10;curved=1;sourcePerimeterSpacing=0;targetPerimeterSpacing=0;entryX=0;entryY=0.5;entryDx=0;entryDy=0;rounded=1;metaEdit=0;fixDash=0;snapToPoint=1;strokeWidth=1;sketch=1;curveFitting=1;jiggle=2;shadow=1;disableMultiStroke=1;disableMultiStrokeFill=1;labelBorderColor=none;html=1;sketchStyle=rough;enumerate=0;" edge="1" parent="WIyWlLk6GJQsqaUBKTNV-1" source="g3-n2oAxiO13UJBlfTeH-53" target="g3-n2oAxiO13UJBlfTeH-4">
                    <mxGeometry relative="1" as="geometry"/>
                </mxCell>
                <mxCell id="g3-n2oAxiO13UJBlfTeH-53" value="&#9;algorithm :&amp;nbsp;LocalOutlierFactor&lt;br&gt;&#9;paramters :&amp;nbsp;n_neighbors ,&amp;nbsp;threshold" style="whiteSpace=wrap;rounded=1;arcSize=50;align=center;verticalAlign=middle;strokeWidth=1;autosize=1;spacing=8;treeFolding=1;treeMoving=1;newEdgeStyle={&quot;edgeStyle&quot;:&quot;entityRelationEdgeStyle&quot;,&quot;startArrow&quot;:&quot;none&quot;,&quot;endArrow&quot;:&quot;none&quot;,&quot;segment&quot;:10,&quot;curved&quot;:1,&quot;sourcePerimeterSpacing&quot;:0,&quot;targetPerimeterSpacing&quot;:0};fontFamily=Helvetica;spacingTop=2;snapToPoint=1;fixDash=0;editable=1;movable=1;resizable=1;rotatable=1;deletable=1;locked=0;connectable=1;backgroundOutline=0;comic=0;shadow=1;fontSize=19;fontColor=#1D3557;labelBackgroundColor=none;labelBorderColor=none;fillColor=#A8DADC;strokeColor=#457B9D;metaEdit=0;sketch=1;curveFitting=1;jiggle=2;disableMultiStroke=1;disableMultiStrokeFill=1;html=1;sketchStyle=rough;enumerate=0;" parent="WIyWlLk6GJQsqaUBKTNV-1" vertex="1">
                    <mxGeometry x="141" y="450" width="350" height="70" as="geometry"/>
                </mxCell>
                <mxCell id="g3-n2oAxiO13UJBlfTeH-56" value="" style="edgeStyle=entityRelationEdgeStyle;rounded=1;orthogonalLoop=1;jettySize=auto;startArrow=none;endArrow=none;segment=10;curved=1;sourcePerimeterSpacing=0;targetPerimeterSpacing=0;entryX=0;entryY=0.5;entryDx=0;entryDy=0;strokeWidth=1;fontFamily=Helvetica;spacing=8;spacingTop=2;snapToPoint=1;fixDash=0;editable=1;movable=1;resizable=1;rotatable=1;deletable=1;locked=0;connectable=1;backgroundOutline=0;comic=0;shadow=1;fontSize=19;fontColor=#1D3557;labelBackgroundColor=none;labelBorderColor=none;strokeColor=#457B9D;metaEdit=0;align=center;sketch=1;curveFitting=1;jiggle=2;disableMultiStroke=1;disableMultiStrokeFill=1;html=1;sketchStyle=rough;enumerate=0;" parent="WIyWlLk6GJQsqaUBKTNV-1" target="g3-n2oAxiO13UJBlfTeH-5" edge="1">
                    <mxGeometry relative="1" as="geometry">
                        <mxPoint x="491" y="564" as="sourcePoint"/>
                    </mxGeometry>
                </mxCell>
                <mxCell id="g3-n2oAxiO13UJBlfTeH-55" value="paramters :Â random_state" style="whiteSpace=wrap;rounded=1;arcSize=50;align=center;verticalAlign=middle;strokeWidth=1;autosize=1;spacing=8;treeFolding=1;treeMoving=1;newEdgeStyle={&quot;edgeStyle&quot;:&quot;entityRelationEdgeStyle&quot;,&quot;startArrow&quot;:&quot;none&quot;,&quot;endArrow&quot;:&quot;none&quot;,&quot;segment&quot;:10,&quot;curved&quot;:1,&quot;sourcePerimeterSpacing&quot;:0,&quot;targetPerimeterSpacing&quot;:0};fontFamily=Helvetica;spacingTop=2;snapToPoint=1;fixDash=0;editable=1;movable=1;resizable=1;rotatable=1;deletable=1;locked=0;connectable=1;backgroundOutline=0;comic=0;shadow=1;fontSize=19;fontColor=#1D3557;labelBackgroundColor=none;labelBorderColor=none;fillColor=#A8DADC;strokeColor=#457B9D;metaEdit=0;sketch=1;curveFitting=1;jiggle=2;disableMultiStroke=1;disableMultiStrokeFill=1;html=1;sketchStyle=rough;enumerate=0;" parent="WIyWlLk6GJQsqaUBKTNV-1" vertex="1">
                    <mxGeometry x="221" y="580" width="270" height="50" as="geometry"/>
                </mxCell>
                <mxCell id="g3-n2oAxiO13UJBlfTeH-63" value="" style="edgeStyle=entityRelationEdgeStyle;rounded=1;orthogonalLoop=1;jettySize=auto;startArrow=none;endArrow=none;segment=10;curved=1;sourcePerimeterSpacing=0;targetPerimeterSpacing=0;entryX=0;entryY=0.5;entryDx=0;entryDy=0;strokeWidth=1;snapToPoint=1;fixDash=0;editable=1;movable=1;resizable=1;rotatable=1;deletable=1;locked=0;connectable=1;backgroundOutline=0;comic=0;shadow=1;fontSize=19;fontColor=#1D3557;labelBackgroundColor=none;labelBorderColor=none;strokeColor=#457B9D;metaEdit=0;align=center;fontFamily=Helvetica;sketch=1;curveFitting=1;jiggle=2;disableMultiStroke=1;disableMultiStrokeFill=1;html=1;sketchStyle=rough;enumerate=0;" parent="WIyWlLk6GJQsqaUBKTNV-1" source="g3-n2oAxiO13UJBlfTeH-59" target="g3-n2oAxiO13UJBlfTeH-15" edge="1">
                    <mxGeometry relative="1" as="geometry"/>
                </mxCell>
                <mxCell id="g3-n2oAxiO13UJBlfTeH-59" value="number of lyres and the size &lt;br&gt;and the activation of each layer&amp;nbsp;" style="whiteSpace=wrap;rounded=1;arcSize=50;align=center;verticalAlign=middle;strokeWidth=1;autosize=1;spacing=4;treeFolding=1;treeMoving=1;newEdgeStyle={&quot;edgeStyle&quot;:&quot;entityRelationEdgeStyle&quot;,&quot;startArrow&quot;:&quot;none&quot;,&quot;endArrow&quot;:&quot;none&quot;,&quot;segment&quot;:10,&quot;curved&quot;:1,&quot;sourcePerimeterSpacing&quot;:0,&quot;targetPerimeterSpacing&quot;:0};snapToPoint=1;fixDash=0;editable=1;movable=1;resizable=1;rotatable=1;deletable=1;locked=0;connectable=1;backgroundOutline=0;comic=0;shadow=1;fontSize=19;fontColor=#1D3557;labelBackgroundColor=none;labelBorderColor=none;fillColor=#A8DADC;strokeColor=#457B9D;metaEdit=0;fontFamily=Helvetica;sketch=1;curveFitting=1;jiggle=2;disableMultiStroke=1;disableMultiStrokeFill=1;html=1;sketchStyle=rough;enumerate=0;" parent="WIyWlLk6GJQsqaUBKTNV-1" vertex="1">
                    <mxGeometry x="50" y="740" width="300" height="60" as="geometry"/>
                </mxCell>
                <mxCell id="g3-n2oAxiO13UJBlfTeH-69" value="" style="edgeStyle=orthogonalEdgeStyle;rounded=1;orthogonalLoop=1;jettySize=auto;entryX=0.008;entryY=0.604;entryDx=0;entryDy=0;entryPerimeter=0;strokeWidth=1;fontSize=19;fontColor=#1D3557;labelBackgroundColor=none;labelBorderColor=none;strokeColor=#457B9D;curved=1;snapToPoint=1;metaEdit=0;align=center;fontFamily=Helvetica;fixDash=0;sketch=1;curveFitting=1;jiggle=2;shadow=1;disableMultiStroke=1;disableMultiStrokeFill=1;html=1;sketchStyle=rough;enumerate=0;" parent="WIyWlLk6GJQsqaUBKTNV-1" source="g3-n2oAxiO13UJBlfTeH-16" target="g3-n2oAxiO13UJBlfTeH-17" edge="1">
                    <mxGeometry relative="1" as="geometry">
                        <Array as="points">
                            <mxPoint x="600" y="1045"/>
                            <mxPoint x="600" y="896"/>
                        </Array>
                    </mxGeometry>
                </mxCell>
                <mxCell id="2" value="performance staticsÂ " style="text;strokeColor=none;fillColor=none;align=center;verticalAlign=middle;rounded=1;fontSize=19;fontColor=#1D3557;labelBackgroundColor=none;labelBorderColor=none;snapToPoint=1;metaEdit=0;fontFamily=Helvetica;fixDash=0;strokeWidth=1;sketch=1;curveFitting=1;jiggle=2;shadow=1;disableMultiStroke=1;disableMultiStrokeFill=1;whiteSpace=wrap;html=1;sketchStyle=rough;enumerate=0;" parent="WIyWlLk6GJQsqaUBKTNV-1" vertex="1">
                    <mxGeometry x="711" y="940" width="160" height="30" as="geometry"/>
                </mxCell>
                <mxCell id="3" value="performance staticsÂ " style="text;strokeColor=none;fillColor=none;align=center;verticalAlign=middle;rounded=1;fontSize=22;fontColor=#1D3557;labelBackgroundColor=none;labelBorderColor=none;snapToPoint=1;metaEdit=0;fontFamily=Helvetica;fixDash=0;strokeWidth=1;sketch=1;curveFitting=1;jiggle=2;shadow=1;disableMultiStroke=1;disableMultiStrokeFill=1;whiteSpace=wrap;html=1;sketchStyle=rough;enumerate=0;" parent="WIyWlLk6GJQsqaUBKTNV-1" vertex="1">
                    <mxGeometry x="347" y="1105" width="160" height="30" as="geometry"/>
                </mxCell>
                <mxCell id="41" value="" style="edgeStyle=none;rounded=1;metaEdit=0;fixDash=0;snapToPoint=1;strokeWidth=1;sketch=1;curveFitting=1;jiggle=2;shadow=1;disableMultiStroke=1;disableMultiStrokeFill=1;labelBorderColor=none;html=1;sketchStyle=rough;enumerate=0;" edge="1" parent="WIyWlLk6GJQsqaUBKTNV-1" source="12" target="g3-n2oAxiO13UJBlfTeH-15">
                    <mxGeometry relative="1" as="geometry"/>
                </mxCell>
                <mxCell id="12" value="80% to taring" style="text;align=center;verticalAlign=middle;rounded=1;strokeWidth=1;fontFamily=Helvetica;spacing=8;spacingTop=2;snapToPoint=1;fixDash=0;editable=1;movable=1;resizable=1;rotatable=1;deletable=1;locked=0;connectable=1;backgroundOutline=0;comic=0;shadow=1;fontSize=22;fontColor=#1D3557;labelBackgroundColor=none;labelBorderColor=none;metaEdit=0;sketch=1;curveFitting=1;jiggle=2;disableMultiStroke=1;disableMultiStrokeFill=1;whiteSpace=wrap;html=1;sketchStyle=rough;enumerate=0;" parent="WIyWlLk6GJQsqaUBKTNV-1" vertex="1">
                    <mxGeometry x="460" y="755" width="60" height="30" as="geometry"/>
                </mxCell>
                <mxCell id="40" value="" style="edgeStyle=none;rounded=1;metaEdit=0;fixDash=0;snapToPoint=1;strokeWidth=1;sketch=1;curveFitting=1;jiggle=2;shadow=1;disableMultiStroke=1;disableMultiStrokeFill=1;labelBorderColor=none;html=1;sketchStyle=rough;enumerate=0;" edge="1" parent="WIyWlLk6GJQsqaUBKTNV-1" source="26" target="33">
                    <mxGeometry relative="1" as="geometry"/>
                </mxCell>
                <mxCell id="26" value="Â features selection" style="rounded=1;strokeWidth=1;fontFamily=Helvetica;spacing=8;spacingTop=2;snapToPoint=1;fixDash=0;editable=1;movable=1;resizable=1;rotatable=1;deletable=1;locked=0;connectable=1;backgroundOutline=0;comic=0;shadow=1;fontSize=19;fontColor=#1D3557;labelBackgroundColor=none;labelBorderColor=none;fillColor=#A8DADC;strokeColor=#457B9D;metaEdit=0;align=center;sketch=1;curveFitting=1;jiggle=2;disableMultiStroke=1;disableMultiStrokeFill=1;whiteSpace=wrap;html=1;sketchStyle=rough;enumerate=0;" vertex="1" parent="WIyWlLk6GJQsqaUBKTNV-1">
                    <mxGeometry x="551" y="299" width="120" height="60" as="geometry"/>
                </mxCell>
                <mxCell id="27" value="data collection" style="shape=cylinder3;boundedLbl=1;backgroundOutline=0;size=15;strokeWidth=1;fontFamily=Helvetica;spacing=8;spacingTop=2;snapToPoint=1;fixDash=0;editable=1;movable=1;resizable=1;rotatable=1;deletable=1;locked=0;connectable=1;comic=0;shadow=1;fontSize=19;fontColor=#1D3557;labelBackgroundColor=none;labelBorderColor=none;fillColor=#A8DADC;strokeColor=#457B9D;rounded=1;metaEdit=0;align=center;sketch=1;curveFitting=1;jiggle=2;disableMultiStroke=1;disableMultiStrokeFill=1;whiteSpace=wrap;html=1;sketchStyle=rough;enumerate=0;" vertex="1" parent="WIyWlLk6GJQsqaUBKTNV-1">
                    <mxGeometry x="549" y="189" width="125" height="80" as="geometry"/>
                </mxCell>
                <mxCell id="28" value="" style="endArrow=classic;rounded=1;entryX=0.5;entryY=0;entryDx=0;entryDy=0;strokeWidth=1;fontFamily=Helvetica;spacing=8;spacingTop=2;snapToPoint=1;fixDash=0;editable=1;movable=1;resizable=1;rotatable=1;deletable=1;locked=0;connectable=1;backgroundOutline=0;comic=0;shadow=1;fontSize=19;fontColor=#1D3557;labelBackgroundColor=none;labelBorderColor=none;strokeColor=#457B9D;curved=1;metaEdit=0;align=center;sketch=1;curveFitting=1;jiggle=2;disableMultiStroke=1;disableMultiStrokeFill=1;html=1;sketchStyle=rough;enumerate=0;" edge="1" source="27" target="26" parent="WIyWlLk6GJQsqaUBKTNV-1">
                    <mxGeometry width="50" height="50" relative="1" as="geometry">
                        <mxPoint x="424" y="399" as="sourcePoint"/>
                        <mxPoint x="474" y="349" as="targetPoint"/>
                    </mxGeometry>
                </mxCell>
                <mxCell id="29" value="start" style="shape=process;backgroundOutline=0;strokeWidth=1;fontFamily=Helvetica;spacing=8;spacingTop=2;snapToPoint=1;fixDash=0;editable=1;movable=1;resizable=1;rotatable=1;deletable=1;locked=0;connectable=1;comic=0;shadow=1;fontSize=19;fontColor=#1D3557;labelBackgroundColor=none;labelBorderColor=none;fillColor=#A8DADC;strokeColor=#457B9D;rounded=1;metaEdit=0;align=center;sketch=1;curveFitting=1;jiggle=2;disableMultiStroke=1;disableMultiStrokeFill=1;whiteSpace=wrap;html=1;sketchStyle=rough;enumerate=0;" vertex="1" parent="WIyWlLk6GJQsqaUBKTNV-1">
                    <mxGeometry x="551" y="99" width="120" height="60" as="geometry"/>
                </mxCell>
                <mxCell id="30" value="" style="edgeStyle=orthogonalEdgeStyle;rounded=1;orthogonalLoop=1;jettySize=auto;entryX=0.5;entryY=0;entryDx=0;entryDy=0;entryPerimeter=0;strokeWidth=1;fontFamily=Helvetica;spacing=8;spacingTop=2;snapToPoint=1;fixDash=0;editable=1;movable=1;resizable=1;rotatable=1;deletable=1;locked=0;connectable=1;backgroundOutline=0;comic=0;shadow=1;fontSize=19;fontColor=#1D3557;labelBackgroundColor=none;labelBorderColor=none;strokeColor=#457B9D;curved=1;metaEdit=0;align=center;sketch=1;curveFitting=1;jiggle=2;disableMultiStroke=1;disableMultiStrokeFill=1;html=1;sketchStyle=rough;enumerate=0;" edge="1" source="29" target="27" parent="WIyWlLk6GJQsqaUBKTNV-1">
                    <mxGeometry relative="1" as="geometry"/>
                </mxCell>
                <mxCell id="37" value="" style="edgeStyle=entityRelationEdgeStyle;startArrow=none;endArrow=none;segment=10;curved=1;sourcePerimeterSpacing=0;targetPerimeterSpacing=0;rounded=1;metaEdit=0;fixDash=0;snapToPoint=1;strokeWidth=1;sketch=1;curveFitting=1;jiggle=2;shadow=1;disableMultiStroke=1;disableMultiStrokeFill=1;labelBorderColor=none;html=1;sketchStyle=rough;enumerate=0;" edge="1" parent="WIyWlLk6GJQsqaUBKTNV-1" source="32" target="26">
                    <mxGeometry relative="1" as="geometry"/>
                </mxCell>
                <mxCell id="32" value="X = b (mm), h (mm), t (mm), L (mm), fy (MPa), fc (MPa)&lt;br&gt;y = P Tested (kN)" style="whiteSpace=wrap;rounded=1;arcSize=50;align=center;verticalAlign=middle;strokeWidth=1;autosize=1;spacing=8;treeFolding=1;treeMoving=1;newEdgeStyle={&quot;edgeStyle&quot;:&quot;entityRelationEdgeStyle&quot;,&quot;startArrow&quot;:&quot;none&quot;,&quot;endArrow&quot;:&quot;none&quot;,&quot;segment&quot;:10,&quot;curved&quot;:1,&quot;sourcePerimeterSpacing&quot;:0,&quot;targetPerimeterSpacing&quot;:0};fontFamily=Helvetica;spacingTop=2;snapToPoint=1;fixDash=0;editable=1;movable=1;resizable=1;rotatable=1;deletable=1;locked=0;connectable=1;backgroundOutline=0;comic=0;shadow=1;fontSize=19;fontColor=#1D3557;labelBackgroundColor=none;labelBorderColor=none;fillColor=#A8DADC;strokeColor=#457B9D;metaEdit=0;sketch=1;curveFitting=1;jiggle=2;disableMultiStroke=1;disableMultiStrokeFill=1;html=1;sketchStyle=rough;enumerate=0;" vertex="1" parent="WIyWlLk6GJQsqaUBKTNV-1">
                    <mxGeometry x="720" y="290" width="520" height="70" as="geometry"/>
                </mxCell>
                <mxCell id="36" value="" style="edgeStyle=none;entryX=0.5;entryY=0;entryDx=0;entryDy=0;rounded=1;metaEdit=0;fixDash=0;snapToPoint=1;strokeWidth=1;sketch=1;curveFitting=1;jiggle=2;shadow=1;disableMultiStroke=1;disableMultiStrokeFill=1;labelBorderColor=none;html=1;sketchStyle=rough;enumerate=0;" edge="1" parent="WIyWlLk6GJQsqaUBKTNV-1" source="33" target="g3-n2oAxiO13UJBlfTeH-4">
                    <mxGeometry relative="1" as="geometry"/>
                </mxCell>
                <mxCell id="33" value="normalization" style="rounded=1;strokeWidth=1;fontFamily=Helvetica;spacing=8;spacingTop=2;snapToPoint=1;fixDash=0;editable=1;movable=1;resizable=1;rotatable=1;deletable=1;locked=0;connectable=1;backgroundOutline=0;comic=0;shadow=1;fontSize=19;fontColor=#1D3557;labelBackgroundColor=none;labelBorderColor=none;fillColor=#A8DADC;strokeColor=#457B9D;metaEdit=0;align=center;sketch=1;curveFitting=1;jiggle=2;disableMultiStroke=1;disableMultiStrokeFill=1;whiteSpace=wrap;html=1;sketchStyle=rough;enumerate=0;" vertex="1" parent="WIyWlLk6GJQsqaUBKTNV-1">
                    <mxGeometry x="551" y="399" width="120" height="60" as="geometry"/>
                </mxCell>
                <mxCell id="35" value="" style="edgeStyle=entityRelationEdgeStyle;startArrow=none;endArrow=none;segment=10;curved=1;sourcePerimeterSpacing=0;targetPerimeterSpacing=0;rounded=1;metaEdit=0;fixDash=0;snapToPoint=1;strokeWidth=1;sketch=1;curveFitting=1;jiggle=2;shadow=1;disableMultiStroke=1;disableMultiStrokeFill=1;labelBorderColor=none;html=1;sketchStyle=rough;enumerate=0;" edge="1" parent="WIyWlLk6GJQsqaUBKTNV-1" source="34" target="33">
                    <mxGeometry relative="1" as="geometry"/>
                </mxCell>
                <mxCell id="34" value="&#9;algorithm :Â StandardScaler" style="whiteSpace=wrap;rounded=1;arcSize=50;align=center;verticalAlign=middle;strokeWidth=1;autosize=1;spacing=8;treeFolding=1;treeMoving=1;newEdgeStyle={&quot;edgeStyle&quot;:&quot;entityRelationEdgeStyle&quot;,&quot;startArrow&quot;:&quot;none&quot;,&quot;endArrow&quot;:&quot;none&quot;,&quot;segment&quot;:10,&quot;curved&quot;:1,&quot;sourcePerimeterSpacing&quot;:0,&quot;targetPerimeterSpacing&quot;:0};fontFamily=Helvetica;spacingTop=2;snapToPoint=1;fixDash=0;editable=1;movable=1;resizable=1;rotatable=1;deletable=1;locked=0;connectable=1;backgroundOutline=0;comic=0;shadow=1;fontSize=19;fontColor=#1D3557;labelBackgroundColor=none;labelBorderColor=none;fillColor=#A8DADC;strokeColor=#457B9D;metaEdit=0;sketch=1;curveFitting=1;jiggle=2;disableMultiStroke=1;disableMultiStrokeFill=1;html=1;sketchStyle=rough;enumerate=0;" vertex="1" parent="WIyWlLk6GJQsqaUBKTNV-1">
                    <mxGeometry x="155" y="350" width="280" height="50" as="geometry"/>
                </mxCell>
                <mxCell id="38" value="" style="edgeStyle=orthogonalEdgeStyle;rounded=1;orthogonalLoop=1;jettySize=auto;strokeWidth=1;fontFamily=Helvetica;spacing=8;spacingTop=2;snapToPoint=1;fixDash=0;editable=1;movable=1;resizable=1;rotatable=1;deletable=1;locked=0;connectable=1;backgroundOutline=0;comic=0;shadow=1;fontSize=19;fontColor=#1D3557;labelBackgroundColor=none;labelBorderColor=none;strokeColor=#457B9D;curved=1;metaEdit=0;align=center;sketch=1;curveFitting=1;jiggle=2;disableMultiStroke=1;disableMultiStrokeFill=1;html=1;sketchStyle=rough;enumerate=0;entryX=1;entryY=0.5;entryDx=0;entryDy=0;exitX=1;exitY=0.5;exitDx=0;exitDy=0;" edge="1" parent="WIyWlLk6GJQsqaUBKTNV-1" source="g3-n2oAxiO13UJBlfTeH-20" target="g3-n2oAxiO13UJBlfTeH-4">
                    <mxGeometry relative="1" as="geometry">
                        <mxPoint x="650" y="490" as="targetPoint"/>
                    </mxGeometry>
                </mxCell>
                <mxCell id="17" value="Untitled Layer" parent="WIyWlLk6GJQsqaUBKTNV-0" visible="0"/>
                <mxCell id="18" value="" style="rounded=1;labelBackgroundColor=none;labelBorderColor=none;fontFamily=Helvetica;fontSize=22;fontColor=#1D3557;noLabel=1;fillColor=none;strokeWidth=3;strokeColor=none;" parent="17" vertex="1">
                    <mxGeometry x="30" y="150" width="1250" height="1230" as="geometry"/>
                </mxCell>
            </root>
        </mxGraphModel>
    </diagram>
</mxfile>